# xmcd
#
# Track frame offsets: 
#        150
#        14796
#        33286
#        48237
#        65853
#        83754
#        101826
#        117776
#        130783
#        146853
#        160811
#        172091
#        189841
#        207325
#        220372
#        235721
#        248457
#
# Disc length: 3549 seconds
#
# Revision: 0
# Processed by: cddbd v1.5.2PL0 Copyright (c) Steve Scherf et al.
# Submitted via: ExactAudioCopy v0.95a5
#
DISCID=f10ddb11
DTITLE=Various Artist - #1 Hits Of Country
DYEAR=2009
DGENRE=Country
TTITLE0=Chely Wright - Single White Female
TTITLE1=Trisha Yearwood - She's In Love With The Boy
TTITLE2=George Strait - Check Yes Or No
TTITLE3=John Michael Montgomery - I Can Love You Like That
TTITLE4=Vince Gill - I Still Believe In You
TTITLE5=Lonestar - Amazed
TTITLE6=Josh Turner - Your Man
TTITLE7=Sammy Kershaw - She Don't Know She's Beautiful
TTITLE8=Patty Loveless - Blame It On Your Heart
TTITLE9=Randy Travis - If I Didn't Have You
TTITLE10=Tracy Byrd - Holdin' Heaven
TTITLE11=David Lee Murphy - Dust On The Bottle
TTITLE12=Reba McEntire - Is There Life Out There
TTITLE13=John Anderson - Staight Tequila Night
TTITLE14=Billy Ray Cyrus - Achy Breaky Heart
TTITLE15=Alabama - I'm In A Hurry (and Don't Know Why)
TTITLE16=Mark Chesnutt - I Don't Want To Miss A Thing
EXTD=
EXTT0=
EXTT1=
EXTT2=
EXTT3=
EXTT4=
EXTT5=
EXTT6=
EXTT7=
EXTT8=
EXTT9=
EXTT10=
EXTT11=
EXTT12=
EXTT13=
EXTT14=
EXTT15=
EXTT16=
PLAYORDER=
